<?xml version="1.0" encoding="utf-8"?>
<!-- Generator: Adobe Illustrator 18.1.1, SVG Export Plug-In . SVG Version: 6.00 Build 0)  -->
<svg version="1.2" baseProfile="tiny" id="Capa_1" xmlns="http://www.w3.org/2000/svg" xmlns:xlink="http://www.w3.org/1999/xlink"
	 x="0px" y="0px" viewBox="0 0 300 300" xml:space="preserve">
<circle fill="#8F1D80" cx="150" cy="150" r="150"/>
<g>
	<path fill="#F6F6F6" d="M211.4,170.7c-10.7,0-19.3,8.6-19.3,19.3c0,10.7,8.6,19.3,19.3,19.3c10.7,0,19.3-8.6,19.3-19.3
		C230.7,179.4,222.1,170.7,211.4,170.7L211.4,170.7z M211.4,198.4c-4.6,0-8.4-3.8-8.4-8.4c0-4.6,3.8-8.4,8.4-8.4
		c4.6,0,8.4,3.8,8.4,8.4C219.8,194.7,216,198.4,211.4,198.4L211.4,198.4z M211.4,198.4"/>
	<path fill="#F6F6F6" d="M98,170.7c-10.7,0-19.3,8.6-19.3,19.3c0,10.7,8.6,19.3,19.3,19.3c10.7,0,19.3-8.6,19.3-19.3
		C117.3,179.4,108.6,170.7,98,170.7L98,170.7z M98,198.4c-4.6,0-8.4-3.8-8.4-8.4c0-4.6,3.8-8.4,8.4-8.4c4.6,0,8.4,3.8,8.4,8.4
		C106.4,194.7,102.6,198.4,98,198.4L98,198.4z M98,198.4"/>
	<path fill="#F6F6F6" d="M61.1,92.5c-6.4,0-11.5,5.2-11.5,11.5v74.5c0,6.3,5.2,11.5,11.5,11.5h14.1c0-12.6,10.2-22.8,22.8-22.8
		c12.6,0,22.8,10.2,22.8,22.8h67.9c0-12.6,10.2-22.8,22.8-22.8c12.6,0,22.8,10.2,22.8,22.8h11.8c6.4,0,11.5-5.2,11.5-11.5v-26.6
		c0-6.4-1-16.6-2.3-22.9l-6.9-25.3c-1.3-6.2-7.5-11.3-13.9-11.3H61.1L61.1,92.5z M209.5,141.2V99.4h22.9c4.8,0,9.4,3.8,10.2,8.5
		l6.2,24.8c0.7,4-1.4,7.3-5,8.2l-5.3-12.5c-0.7-1.8-2.8-2.6-4.5-1.8c-1.8,0.7-2.6,2.8-1.8,4.5l4.3,10.1H209.5L209.5,141.2z
		 M158.1,99.4h44.4v41.8h-44.4V99.4z M106.8,99.4h44.4v41.8h-44.4V99.4z M56.6,108.1c0-4.8,3.9-8.7,8.7-8.7h34.6v41.8H65.3
		c-4.8,0-8.7-3.9-8.7-8.7V108.1z M56.6,132.5"/>
</g>
</svg>
