<?xml version="1.0" encoding="utf-8"?>
<!-- Generator: Adobe Illustrator 18.1.1, SVG Export Plug-In . SVG Version: 6.00 Build 0)  -->
<svg version="1.2" baseProfile="tiny" id="Capa_1" xmlns="http://www.w3.org/2000/svg" xmlns:xlink="http://www.w3.org/1999/xlink"
	 x="0px" y="0px" viewBox="0 0 300 300" xml:space="preserve">
<circle fill="#8F1D80" cx="150" cy="150" r="150"/>
<g>
	<path fill="#FFFFFF" d="M260.1,89.6l-14.2-14.2c-1.6-1.6-4.5-1.6-6.1,0c-0.8,0.8-1.3,1.9-1.3,3c0,1.1,0.4,2.2,1.2,3l-5.9,5.9
		c-0.8,0.8-1.3,1.9-1.3,3c0,1.1,0.4,2.2,1.3,3c1.6,1.6,4.5,1.6,6.1,0l5.9-5.9l5.1,5.1l-43.5,43.5c-0.8,0.8-1.3,1.9-1.3,3
		c0,1.1,0.4,2.2,1.3,3c0.8,0.8,1.9,1.3,3,1.3c1.1,0,2.2-0.4,3-1.3l46.5-46.5c0.8-0.8,1.3-1.9,1.3-3
		C261.4,91.5,260.9,90.4,260.1,89.6z"/>
	<path fill="#FFFFFF" d="M212.1,149.8c-2.4,0-4.3,1.9-4.3,4.3c0,6.7-1.8,12-5.5,15.6c-3.6,3.6-8.9,5.5-15.6,5.5
		c-5,0-10.6-1-16.7-3.1c-15.5-5.2-32.1-16.1-46.8-30.8c-14.7-14.7-25.6-31.3-30.8-46.8c-4.8-14.5-4-25.9,2.4-32.3
		c3.6-3.6,8.9-5.5,15.6-5.5c5,0,10.6,1,16.7,3.1C142.7,65,159.3,76,174,90.7c11.5,11.5,20.8,24.3,26.8,36.9c0.7,1.5,2.2,2.5,3.9,2.5
		c0.6,0,1.3-0.1,1.8-0.4c1-0.5,1.8-1.4,2.2-2.4c0.4-1.1,0.3-2.3-0.2-3.3c-6.4-13.5-16.3-27.1-28.5-39.3
		c-15.6-15.6-33.4-27.3-50.1-32.9c-17.4-5.8-32.1-4.3-40.9,4.4l-3.1,3.1c-11,11-14.9,27.7-10.9,46.9c3.8,18.6,14.6,37.5,30.4,53.2
		c12.1,12.1,24,19.6,34.8,24.1v26.2l-46.5,39.9c-0.9,0.7-1.4,1.8-1.5,2.9c-0.1,1.1,0.3,2.3,1,3.1c1.5,1.7,4.3,2,6.1,0.5l25.3-21.7
		l15.7,8.3v10.1c0,2.4,1.9,4.3,4.3,4.3s4.3-1.9,4.3-4.3v-10.1l15.7-8.3l25.3,21.7c0.8,0.7,1.8,1,2.8,1c1.3,0,2.4-0.5,3.3-1.5
		c0.7-0.9,1.1-2,1-3.1c-0.1-1.1-0.6-2.2-1.5-2.9l-46.5-39.9v-23.1c6.1,1.8,11.6,2.8,16.3,3.2c2.1,0.2,4.3,0.3,6.4,0.3
		c14.3,0,27-4.2,34.1-11.3l3-3c0,0,0.1-0.1,0.1-0.1l0.2-0.2v0c5-5.2,7.6-12.6,7.6-21.4C216.4,151.7,214.5,149.8,212.1,149.8z
		 M148.7,233v-12l8.6,7.4L148.7,233z M171.3,181.5c-1.8,0-3.7-0.1-5.6-0.3c-13.2-1.2-33.4-7-54.4-27.9C92,133.8,80.9,109,82.1,88.9
		c0.6,2.7,1.3,5.5,2.3,8.4c5.6,16.7,17.2,34.5,32.9,50.1c15.6,15.6,33.4,27.3,50.1,32.9C168.7,180.7,170,181.1,171.3,181.5z
		 M140.1,221v12l-8.6-4.6L140.1,221z"/>
</g>
</svg>
