<?xml version="1.0" encoding="utf-8"?>
<!-- Generator: Adobe Illustrator 18.1.1, SVG Export Plug-In . SVG Version: 6.00 Build 0)  -->
<svg version="1.2" baseProfile="tiny" id="Capa_1" xmlns="http://www.w3.org/2000/svg" xmlns:xlink="http://www.w3.org/1999/xlink"
	 x="0px" y="0px" viewBox="0 0 300 300" xml:space="preserve">
<circle fill="#8F1D80" cx="150" cy="150" r="150"/>
<g>
	<g>
		<path fill="#F6F6F6" d="M160.9,97.3H95.5c-5.4,0-9.9,4.5-9.9,9.9v127c0,5.4,4.5,9.9,9.9,9.9h65.4c5.4,0,9.9-4.5,9.9-9.9v-127
			C170.8,101.8,166.4,97.3,160.9,97.3L160.9,97.3z M117.7,104.5h20.9c0.7,0,1.2,0.5,1.2,1.2c0,0.7-0.5,1.2-1.2,1.2h-20.9
			c-0.7,0-1.2-0.5-1.2-1.2C116.5,105,117,104.5,117.7,104.5L117.7,104.5z M128.2,239.2c-2.7,0-5-2.2-5-5c0-2.7,2.2-5,5-5
			c2.7,0,5,2.2,5,5C133.1,237,130.9,239.2,128.2,239.2L128.2,239.2z M163.9,225.8H92.4V113.1h71.5V225.8z M163.9,225.8"/>
	</g>
	<path fill="#F6F6F6" d="M156.3,52.3c-0.8-0.7-1.4-1.6-1.7-2.7c-0.6-2.5,0.9-4.9,3.4-5.3c1.6-0.3,8-0.6,16.6,0.8
		c11,1.8,21.1,6,29.3,12.2c14,10.5,22.7,26.4,25.7,47.2c0.4,2.6-1.4,4.7-4,4.9c-2.6,0.1-5-1.8-5.3-4.4c-2.6-17.9-9.7-31.4-21.3-40.2
		c-8.6-6.5-18.2-9.2-24.8-10.4c-7.3-1.2-12.8-0.9-13.8-0.8C158.9,53.7,157.4,53.2,156.3,52.3 M161.5,69.4c1.6-0.2,16.1-1.4,27.8,7.7
		c8,6.2,13,16,15,29c0.4,2.6,2.8,4.5,5.4,4.4c2.6-0.2,4.3-2.3,4-4.9c-2.4-15.7-8.8-27.7-18.9-35.6c-14.6-11.4-31.8-10.2-35.1-9.9
		c-2.6,0.3-4.2,2.6-3.7,5.1c0.2,1.2,0.9,2.2,1.7,2.9C158.8,69,160.1,69.5,161.5,69.4 M163,85.6c1.7-0.5,9.5-0.8,15.8,3.5
		c5.3,3.7,8.5,10,9.3,18.7c0.2,2.6,2.5,4.6,5.1,4.6c2.6,0,4.5-2.1,4.3-4.7c-1.4-14.7-8.3-22.3-13.7-26.1c-9.3-6.4-20.3-6.1-24.1-5
		c-2.4,0.7-3.6,3.3-2.7,5.8c0.3,0.8,0.8,1.5,1.5,2.1C159.7,85.6,161.4,86.1,163,85.6"/>
</g>
</svg>
