<?xml version="1.0" encoding="utf-8"?>
<!-- Generator: Adobe Illustrator 18.1.1, SVG Export Plug-In . SVG Version: 6.00 Build 0)  -->
<svg version="1.2" baseProfile="tiny" id="Capa_1" xmlns="http://www.w3.org/2000/svg" xmlns:xlink="http://www.w3.org/1999/xlink"
	 x="0px" y="0px" viewBox="0 248.7 600 102.6" xml:space="preserve">
<g>
	<text transform="matrix(1 0 0 1 131.5672 337.4218)" fill="#FFFFFF" font-family="'Aller'" font-size="50.7281">P</text>
	<text transform="matrix(1 0 0 1 160.2797 337.4218)" fill="#FFFFFF" font-family="'Aller'" font-size="50.7281">r</text>
	<text transform="matrix(1 0 0 1 178.3885 337.4218)" fill="#FFFFFF" font-family="'Aller'" font-size="50.7281">o</text>
	<text transform="matrix(1 0 0 1 207.658 337.4218)" fill="#FFFFFF" font-family="'Aller'" font-size="50.7281"> </text>
	<text transform="matrix(1 0 0 1 219.6808 337.4218)" fill="#FFFFFF" font-family="'Aller'" font-size="50.7281">M</text>
	<text transform="matrix(1 0 0 1 261.0754 337.4218)" fill="#FFFFFF" font-family="'Aller'" font-size="50.7281">e</text>
	<text transform="matrix(1 0 0 1 289.28 337.4218)" fill="#FFFFFF" font-family="'Aller'" font-size="50.7281">d</text>
	<text transform="matrix(1 0 0 1 319.0067 337.4218)" fill="#FFFFFF" font-family="'Aller'" font-size="50.7281">i</text>
	<text transform="matrix(1 0 0 1 333.6151 337.4218)" fill="#FFFFFF" font-family="'Aller'" font-size="50.7281">o</text>
	<text transform="matrix(1 0 0 1 362.8867 337.4218)" fill="#FFFFFF" font-family="'Aller'" font-size="50.7281">s</text>
	<text transform="matrix(1 0 0 1 385.9655 337.4218)" fill="#FFFFFF" font-family="'Aller'" font-size="50.7281"> </text>
	<text transform="matrix(1 0 0 1 397.9883 337.4218)" fill="#FFFFFF" font-family="'Aller'" font-size="50.7281">D</text>
	<text transform="matrix(1 0 0 1 433.447 337.4218)" fill="#FFFFFF" font-family="'Aller'" font-size="50.7281">i</text>
	<text transform="matrix(1 0 0 1 448.0566 337.4218)" fill="#FFFFFF" font-family="'Aller'" font-size="50.7281">g</text>
	<text transform="matrix(1 0 0 1 476.109 337.4218)" fill="#FFFFFF" font-family="'Aller'" font-size="50.7281">i</text>
	<text transform="matrix(1 0 0 1 490.7185 337.4218)" fill="#FFFFFF" font-family="'Aller'" font-size="50.7281">t</text>
	<text transform="matrix(1 0 0 1 508.8776 337.4218)" fill="#FFFFFF" font-family="'Aller'" font-size="50.7281">a</text>
	<text transform="matrix(1 0 0 1 535.1034 337.4218)" fill="#FFFFFF" font-family="'Aller'" font-size="50.7281">l</text>
	<text transform="matrix(1 0 0 1 550.2214 337.4218)" fill="#FFFFFF" font-family="'Aller'" font-size="50.7281">e</text>
	<text transform="matrix(1 0 0 1 578.4255 337.4218)" fill="#FFFFFF" font-family="'Aller'" font-size="50.7281">s</text>
	<g>
		<polygon fill="#F7F7F7" points="130.6,250.5 112.7,342.9 76,321.9 		"/>
		<polygon fill="#F7F7F7" points="1,301.3 130.6,250.5 39.5,306.2 		"/>
		<polygon fill="#C1C1C1" points="58.9,345.2 39.5,306.2 130.6,250.5 68.9,317.4 		"/>
		<polygon fill="#DDDDDD" points="76,321.9 68.9,317.4 130.6,250.5 		"/>
		<polygon fill="#8E8E8E" points="58.9,345.2 76,321.9 68.9,317.4 		"/>
	</g>
</g>
<rect x="1" y="248.7" fill="none" width="599" height="102.6"/>
</svg>
